<svg width="120" height="40" viewBox="0 0 120 40" fill="none" xmlns="http://www.w3.org/2000/svg">
<path d="M18.6055 15.6445C18.4414 13.9492 16.9922 12.9648 14.8594 12.9648C12.6172 12.9648 11.25 14.0586 11.25 15.5352C11.25 17.2031 13 17.8867 14.6406 18.2695L16.5 18.7617C19.4531 19.4453 22.2969 21.0039 22.2969 24.4492C22.2969 27.9219 19.5625 30.3008 14.8047 30.3008C10.1836 30.3008 7.28516 28.0859 7.12109 24.1758H10.6211C10.7852 26.2539 12.5352 27.2656 14.7773 27.2656C17.1289 27.2656 18.7422 26.1172 18.7422 24.4219C18.7422 22.8633 17.293 22.207 15.1602 21.6602L12.918 21.0859C9.66406 20.2383 7.64062 18.5977 7.64062 15.7539C7.64062 12.2539 10.7578 9.92969 14.9141 9.92969C19.125 9.92969 21.9688 12.3086 22.0234 15.6445H18.6055ZM28.8047 10.2031V30H25.25V10.2031H28.8047ZM43.2695 15.6445C43.1055 13.9492 41.6562 12.9648 39.5234 12.9648C37.2812 12.9648 35.9141 14.0586 35.9141 15.5352C35.9141 17.2031 37.6641 17.8867 39.3047 18.2695L41.1641 18.7617C44.1172 19.4453 46.9609 21.0039 46.9609 24.4492C46.9609 27.9219 44.2266 30.3008 39.4688 30.3008C34.8477 30.3008 31.9492 28.0859 31.7852 24.1758H35.2852C35.4492 26.2539 37.1992 27.2656 39.4414 27.2656C41.793 27.2656 43.4062 26.1172 43.4062 24.4219C43.4062 22.8633 41.957 22.207 39.8242 21.6602L37.582 21.0859C34.3281 20.2383 32.3047 18.5977 32.3047 15.7539C32.3047 12.2539 35.4219 9.92969 39.5781 9.92969C43.7891 9.92969 46.6328 12.3086 46.6875 15.6445H43.2695ZM67.5781 20.1016C67.5781 26.5 63.6953 30.2734 58.5 30.2734C53.3047 30.2734 49.4219 26.4727 49.4219 20.1016C49.4219 13.7031 53.3047 9.92969 58.5 9.92969C63.6953 9.92969 67.5781 13.7031 67.5781 20.1016ZM63.9961 20.1016C63.9961 15.5898 61.7266 13.1289 58.5 13.1289C55.2734 13.1289 53.0039 15.5898 53.0039 20.1016C53.0039 24.6133 55.2734 27.0742 58.5 27.0742C61.7266 27.0742 63.9961 24.6133 63.9961 20.1016ZM70.75 30V10.2031H78.3242C82.6172 10.2031 84.75 12.3906 84.75 15.3438C84.75 17.75 83.2188 19.0898 81.2773 19.5547V19.7461C83.3828 19.8555 85.5156 21.6055 85.5156 24.6133C85.5156 27.7031 83.3008 30 78.7617 30H70.75ZM78.2148 27.0195C80.8125 27.0195 81.9062 25.8984 81.9062 24.3398C81.9062 22.5625 80.5117 21.1953 78.2969 21.1953H74.3047V27.0195H78.2148ZM77.8867 18.625C79.7734 18.625 81.1953 17.5312 81.1953 15.7812C81.1953 14.25 80.1016 13.1562 77.9688 13.1562H74.3047V18.625H77.8867ZM91.9688 10.2031V30H88.4141V10.2031H91.9688ZM113.324 20.1016C113.324 26.5 109.441 30.2734 104.246 30.2734C99.0508 30.2734 95.168 26.4727 95.168 20.1016C95.168 13.7031 99.0508 9.92969 104.246 9.92969C109.441 9.92969 113.324 13.7031 113.324 20.1016ZM109.742 20.1016C109.742 15.5898 107.473 13.1289 104.246 13.1289C101.02 13.1289 98.75 15.5898 98.75 20.1016C98.75 24.6133 101.02 27.0742 104.246 27.0742C107.473 27.0742 109.742 24.6133 109.742 20.1016Z" fill="black"/>
</svg>
