<svg width="24" height="24" viewBox="0 0 24 24" fill="none" xmlns="http://www.w3.org/2000/svg">
<path d="M18.75 15C18.75 19.1424 16.1423 21.75 12 21.75C7.85766 21.75 5.25 19.1424 5.25 15C5.25 10.5549 10.0889 4.55392 11.573 2.81813C11.6258 2.75646 11.6913 2.70696 11.7651 2.67301C11.8388 2.63907 11.919 2.62149 12.0002 2.62149C12.0814 2.62149 12.1617 2.63907 12.2354 2.67301C12.3092 2.70696 12.3747 2.75646 12.4275 2.81813C13.9111 4.55392 18.75 10.5549 18.75 15Z" stroke="black" stroke-width="2" stroke-miterlimit="10"/>
<path d="M16.125 15.375C16.125 16.2701 15.7694 17.1285 15.1365 17.7615C14.5035 18.3944 13.6451 18.75 12.75 18.75" stroke="black" stroke-width="2" stroke-linecap="round" stroke-linejoin="round"/>
</svg>
